<?xml version="1.0" encoding="UTF-8" standalone="no"?>
<!DOCTYPE svg PUBLIC "-//W3C//DTD SVG 1.1//EN"
 "http://www.w3.org/Graphics/SVG/1.1/DTD/svg11.dtd">
<!-- Generated by graphviz version 12.2.1 (20241206.2353)
 -->
<!-- Title: dependency&#45;cruiser output Pages: 1 -->
<svg width="308pt" height="1198pt"
 viewBox="0.00 0.00 307.88 1198.00" xmlns="http://www.w3.org/2000/svg" xmlns:xlink="http://www.w3.org/1999/xlink">
<g id="graph0" class="graph" transform="scale(1 1) rotate(0) translate(4 1194)">
<title>dependency&#45;cruiser output</title>
<polygon fill="white" stroke="none" points="-4,4 -4,-1194 303.88,-1194 303.88,4 -4,4"/>
<g id="clust1" class="cluster">
<title>cluster_src</title>
<path fill="#ffffff" stroke="black" stroke-width="2" d="M20,-8C20,-8 279.88,-8 279.88,-8 285.88,-8 291.88,-14 291.88,-20 291.88,-20 291.88,-1170 291.88,-1170 291.88,-1176 285.88,-1182 279.88,-1182 279.88,-1182 20,-1182 20,-1182 14,-1182 8,-1176 8,-1170 8,-1170 8,-20 8,-20 8,-14 14,-8 20,-8"/>
<text text-anchor="middle" x="149.94" y="-1169.45" font-family="Helvetica,sans-Serif" font-weight="bold" font-size="9.00">src</text>
</g>
<g id="clust2" class="cluster">
<title>cluster_src/app</title>
<path fill="#ffffff" stroke="black" stroke-width="2" d="M28,-16C28,-16 251.25,-16 251.25,-16 257.25,-16 263.25,-22 263.25,-28 263.25,-28 263.25,-814 263.25,-814 263.25,-820 257.25,-826 251.25,-826 251.25,-826 28,-826 28,-826 22,-826 16,-820 16,-814 16,-814 16,-28 16,-28 16,-22 22,-16 28,-16"/>
<text text-anchor="middle" x="139.62" y="-813.45" font-family="Helvetica,sans-Serif" font-weight="bold" font-size="9.00">app</text>
</g>
<g id="clust3" class="cluster">
<title>cluster_src/app/api</title>
<path fill="#ffffff" stroke="black" stroke-width="2" d="M36,-24C36,-24 130,-24 130,-24 136,-24 142,-30 142,-36 142,-36 142,-732 142,-732 142,-738 136,-744 130,-744 130,-744 36,-744 36,-744 30,-744 24,-738 24,-732 24,-732 24,-36 24,-36 24,-30 30,-24 36,-24"/>
<text text-anchor="middle" x="83" y="-731.45" font-family="Helvetica,sans-Serif" font-weight="bold" font-size="9.00">api</text>
</g>
<g id="clust4" class="cluster">
<title>cluster_src/app/api/accounts</title>
<path fill="#ffffff" stroke="black" stroke-width="2" d="M44,-32C44,-32 122,-32 122,-32 128,-32 134,-38 134,-44 134,-44 134,-252 134,-252 134,-258 128,-264 122,-264 122,-264 44,-264 44,-264 38,-264 32,-258 32,-252 32,-252 32,-44 32,-44 32,-38 38,-32 44,-32"/>
<text text-anchor="middle" x="83" y="-251.45" font-family="Helvetica,sans-Serif" font-weight="bold" font-size="9.00">accounts</text>
</g>
<g id="clust5" class="cluster">
<title>cluster_src/app/api/accounts/[id]</title>
<path fill="#ffffff" stroke="black" stroke-width="2" d="M52,-40C52,-40 114,-40 114,-40 120,-40 126,-46 126,-52 126,-52 126,-200 126,-200 126,-206 120,-212 114,-212 114,-212 52,-212 52,-212 46,-212 40,-206 40,-200 40,-200 40,-52 40,-52 40,-46 46,-40 52,-40"/>
<text text-anchor="middle" x="83" y="-199.45" font-family="Helvetica,sans-Serif" font-weight="bold" font-size="9.00">[id]</text>
</g>
<g id="clust6" class="cluster">
<title>cluster_src/app/api/accounts/[id]/status</title>
<path fill="#ffffff" stroke="black" stroke-width="2" d="M60,-48C60,-48 106,-48 106,-48 112,-48 118,-54 118,-60 118,-60 118,-88 118,-88 118,-94 112,-100 106,-100 106,-100 60,-100 60,-100 54,-100 48,-94 48,-88 48,-88 48,-60 48,-60 48,-54 54,-48 60,-48"/>
<text text-anchor="middle" x="83" y="-87.45" font-family="Helvetica,sans-Serif" font-weight="bold" font-size="9.00">status</text>
</g>
<g id="clust7" class="cluster">
<title>cluster_src/app/api/accounts/[id]/tasks</title>
<path fill="#ffffff" stroke="black" stroke-width="2" d="M60,-108C60,-108 106,-108 106,-108 112,-108 118,-114 118,-120 118,-120 118,-148 118,-148 118,-154 112,-160 106,-160 106,-160 60,-160 60,-160 54,-160 48,-154 48,-148 48,-148 48,-120 48,-120 48,-114 54,-108 60,-108"/>
<text text-anchor="middle" x="83" y="-147.45" font-family="Helvetica,sans-Serif" font-weight="bold" font-size="9.00">tasks</text>
</g>
<g id="clust8" class="cluster">
<title>cluster_src/app/api/emulators</title>
<path fill="#ffffff" stroke="black" stroke-width="2" d="M44,-272C44,-272 122,-272 122,-272 128,-272 134,-278 134,-284 134,-284 134,-612 134,-612 134,-618 128,-624 122,-624 122,-624 44,-624 44,-624 38,-624 32,-618 32,-612 32,-612 32,-284 32,-284 32,-278 38,-272 44,-272"/>
<text text-anchor="middle" x="83" y="-611.45" font-family="Helvetica,sans-Serif" font-weight="bold" font-size="9.00">emulators</text>
</g>
<g id="clust9" class="cluster">
<title>cluster_src/app/api/emulators/[id]</title>
<path fill="#ffffff" stroke="black" stroke-width="2" d="M52,-280C52,-280 114,-280 114,-280 120,-280 126,-286 126,-292 126,-292 126,-500 126,-500 126,-506 120,-512 114,-512 114,-512 52,-512 52,-512 46,-512 40,-506 40,-500 40,-500 40,-292 40,-292 40,-286 46,-280 52,-280"/>
<text text-anchor="middle" x="83" y="-499.45" font-family="Helvetica,sans-Serif" font-weight="bold" font-size="9.00">[id]</text>
</g>
<g id="clust10" class="cluster">
<title>cluster_src/app/api/emulators/[id]/input</title>
<path fill="#ffffff" stroke="black" stroke-width="2" d="M60,-288C60,-288 106,-288 106,-288 112,-288 118,-294 118,-300 118,-300 118,-328 118,-328 118,-334 112,-340 106,-340 106,-340 60,-340 60,-340 54,-340 48,-334 48,-328 48,-328 48,-300 48,-300 48,-294 54,-288 60,-288"/>
<text text-anchor="middle" x="83" y="-327.45" font-family="Helvetica,sans-Serif" font-weight="bold" font-size="9.00">input</text>
</g>
<g id="clust11" class="cluster">
<title>cluster_src/app/api/emulators/[id]/start</title>
<path fill="#ffffff" stroke="black" stroke-width="2" d="M60,-348C60,-348 106,-348 106,-348 112,-348 118,-354 118,-360 118,-360 118,-388 118,-388 118,-394 112,-400 106,-400 106,-400 60,-400 60,-400 54,-400 48,-394 48,-388 48,-388 48,-360 48,-360 48,-354 54,-348 60,-348"/>
<text text-anchor="middle" x="83" y="-387.45" font-family="Helvetica,sans-Serif" font-weight="bold" font-size="9.00">start</text>
</g>
<g id="clust12" class="cluster">
<title>cluster_src/app/api/emulators/[id]/stop</title>
<path fill="#ffffff" stroke="black" stroke-width="2" d="M60,-408C60,-408 106,-408 106,-408 112,-408 118,-414 118,-420 118,-420 118,-448 118,-448 118,-454 112,-460 106,-460 106,-460 60,-460 60,-460 54,-460 48,-454 48,-448 48,-448 48,-420 48,-420 48,-414 54,-408 60,-408"/>
<text text-anchor="middle" x="83" y="-447.45" font-family="Helvetica,sans-Serif" font-weight="bold" font-size="9.00">stop</text>
</g>
<g id="clust13" class="cluster">
<title>cluster_src/app/api/emulators/system&#45;images</title>
<path fill="#ffffff" stroke="black" stroke-width="2" d="M54.12,-520C54.12,-520 112.88,-520 112.88,-520 118.88,-520 124.88,-526 124.88,-532 124.88,-532 124.88,-560 124.88,-560 124.88,-566 118.88,-572 112.88,-572 112.88,-572 54.12,-572 54.12,-572 48.12,-572 42.12,-566 42.12,-560 42.12,-560 42.12,-532 42.12,-532 42.12,-526 48.12,-520 54.12,-520"/>
<text text-anchor="middle" x="83.5" y="-559.45" font-family="Helvetica,sans-Serif" font-weight="bold" font-size="9.00">system&#45;images</text>
</g>
<g id="clust14" class="cluster">
<title>cluster_src/app/api/tasks</title>
<path fill="#ffffff" stroke="black" stroke-width="2" d="M52,-632C52,-632 114,-632 114,-632 120,-632 126,-638 126,-644 126,-644 126,-706 126,-706 126,-712 120,-718 114,-718 114,-718 52,-718 52,-718 46,-718 40,-712 40,-706 40,-706 40,-644 40,-644 40,-638 46,-632 52,-632"/>
<text text-anchor="middle" x="83" y="-705.45" font-family="Helvetica,sans-Serif" font-weight="bold" font-size="9.00">tasks</text>
</g>
<g id="clust15" class="cluster">
<title>cluster_src/app/api/tasks/[id]</title>
<path fill="#ffffff" stroke="black" stroke-width="2" d="M60,-640C60,-640 106,-640 106,-640 112,-640 118,-646 118,-652 118,-652 118,-680 118,-680 118,-686 112,-692 106,-692 106,-692 60,-692 60,-692 54,-692 48,-686 48,-680 48,-680 48,-652 48,-652 48,-646 54,-640 60,-640"/>
<text text-anchor="middle" x="83" y="-679.45" font-family="Helvetica,sans-Serif" font-weight="bold" font-size="9.00">[id]</text>
</g>
<g id="clust16" class="cluster">
<title>cluster_src/components</title>
<path fill="#ffffff" stroke="black" stroke-width="2" d="M176.88,-834C176.88,-834 271.88,-834 271.88,-834 277.88,-834 283.88,-840 283.88,-846 283.88,-846 283.88,-964 283.88,-964 283.88,-970 277.88,-976 271.88,-976 271.88,-976 176.88,-976 176.88,-976 170.88,-976 164.88,-970 164.88,-964 164.88,-964 164.88,-846 164.88,-846 164.88,-840 170.88,-834 176.88,-834"/>
<text text-anchor="middle" x="224.38" y="-963.45" font-family="Helvetica,sans-Serif" font-weight="bold" font-size="9.00">components</text>
</g>
<g id="clust17" class="cluster">
<title>cluster_src/services</title>
<path fill="#ffffff" stroke="black" stroke-width="2" d="M39.25,-984C39.25,-984 258.38,-984 258.38,-984 264.38,-984 270.38,-990 270.38,-996 270.38,-996 270.38,-1084 270.38,-1084 270.38,-1090 264.38,-1096 258.38,-1096 258.38,-1096 39.25,-1096 39.25,-1096 33.25,-1096 27.25,-1090 27.25,-1084 27.25,-1084 27.25,-996 27.25,-996 27.25,-990 33.25,-984 39.25,-984"/>
<text text-anchor="middle" x="148.81" y="-1083.45" font-family="Helvetica,sans-Serif" font-weight="bold" font-size="9.00">services</text>
</g>
<g id="clust18" class="cluster">
<title>cluster_src/types</title>
<path fill="#ffffff" stroke="black" stroke-width="2" d="M60,-1104C60,-1104 106,-1104 106,-1104 112,-1104 118,-1110 118,-1116 118,-1116 118,-1144 118,-1144 118,-1150 112,-1156 106,-1156 106,-1156 60,-1156 60,-1156 54,-1156 48,-1150 48,-1144 48,-1144 48,-1116 48,-1116 48,-1110 54,-1104 60,-1104"/>
<text text-anchor="middle" x="83" y="-1143.45" font-family="Helvetica,sans-Serif" font-weight="bold" font-size="9.00">types</text>
</g>
<!-- src/app/api/accounts/[id]/route.ts -->
<g id="node1" class="node">
<title>src/app/api/accounts/[id]/route.ts</title>
<g id="a_node1"><a xlink:href="https://github.com/your-username/your-repo/blob/main/src/app/api/accounts/[id]/route.ts" xlink:title="route.ts">
<path fill="#ccffcc" stroke="black" d="M104.08,-185.88C104.08,-185.88 61.92,-185.88 61.92,-185.88 58.96,-185.88 56,-182.92 56,-179.96 56,-179.96 56,-174.04 56,-174.04 56,-171.08 58.96,-168.12 61.92,-168.12 61.92,-168.12 104.08,-168.12 104.08,-168.12 107.04,-168.12 110,-171.08 110,-174.04 110,-174.04 110,-179.96 110,-179.96 110,-182.92 107.04,-185.88 104.08,-185.88"/>
<text text-anchor="start" x="68" y="-173.32" font-family="Helvetica,sans-Serif" font-size="9.00">route.ts</text>
</a>
</g>
</g>
<!-- src/app/api/accounts/[id]/status/route.ts -->
<g id="node2" class="node">
<title>src/app/api/accounts/[id]/status/route.ts</title>
<g id="a_node2"><a xlink:href="https://github.com/your-username/your-repo/blob/main/src/app/api/accounts/[id]/status/route.ts" xlink:title="route.ts">
<path fill="#ccffcc" stroke="black" d="M104.08,-73.88C104.08,-73.88 61.92,-73.88 61.92,-73.88 58.96,-73.88 56,-70.92 56,-67.96 56,-67.96 56,-62.04 56,-62.04 56,-59.08 58.96,-56.12 61.92,-56.12 61.92,-56.12 104.08,-56.12 104.08,-56.12 107.04,-56.12 110,-59.08 110,-62.04 110,-62.04 110,-67.96 110,-67.96 110,-70.92 107.04,-73.88 104.08,-73.88"/>
<text text-anchor="start" x="68" y="-61.33" font-family="Helvetica,sans-Serif" font-size="9.00">route.ts</text>
</a>
</g>
</g>
<!-- src/app/api/accounts/[id]/tasks/route.ts -->
<g id="node3" class="node">
<title>src/app/api/accounts/[id]/tasks/route.ts</title>
<g id="a_node3"><a xlink:href="https://github.com/your-username/your-repo/blob/main/src/app/api/accounts/[id]/tasks/route.ts" xlink:title="route.ts">
<path fill="#ccffcc" stroke="black" d="M104.08,-133.88C104.08,-133.88 61.92,-133.88 61.92,-133.88 58.96,-133.88 56,-130.92 56,-127.96 56,-127.96 56,-122.04 56,-122.04 56,-119.08 58.96,-116.12 61.92,-116.12 61.92,-116.12 104.08,-116.12 104.08,-116.12 107.04,-116.12 110,-119.08 110,-122.04 110,-122.04 110,-127.96 110,-127.96 110,-130.92 107.04,-133.88 104.08,-133.88"/>
<text text-anchor="start" x="68" y="-121.33" font-family="Helvetica,sans-Serif" font-size="9.00">route.ts</text>
</a>
</g>
</g>
<!-- src/app/api/accounts/route.ts -->
<g id="node4" class="node">
<title>src/app/api/accounts/route.ts</title>
<g id="a_node4"><a xlink:href="https://github.com/your-username/your-repo/blob/main/src/app/api/accounts/route.ts" xlink:title="route.ts">
<path fill="#ccffcc" stroke="black" d="M104.08,-237.88C104.08,-237.88 61.92,-237.88 61.92,-237.88 58.96,-237.88 56,-234.92 56,-231.96 56,-231.96 56,-226.04 56,-226.04 56,-223.08 58.96,-220.12 61.92,-220.12 61.92,-220.12 104.08,-220.12 104.08,-220.12 107.04,-220.12 110,-223.08 110,-226.04 110,-226.04 110,-231.96 110,-231.96 110,-234.92 107.04,-237.88 104.08,-237.88"/>
<text text-anchor="start" x="68" y="-225.32" font-family="Helvetica,sans-Serif" font-size="9.00">route.ts</text>
</a>
</g>
</g>
<!-- src/app/api/emulators/[id]/input/route.ts -->
<g id="node5" class="node">
<title>src/app/api/emulators/[id]/input/route.ts</title>
<g id="a_node5"><a xlink:href="https://github.com/your-username/your-repo/blob/main/src/app/api/emulators/[id]/input/route.ts" xlink:title="route.ts">
<path fill="#ccffcc" stroke="black" d="M104.08,-313.88C104.08,-313.88 61.92,-313.88 61.92,-313.88 58.96,-313.88 56,-310.92 56,-307.96 56,-307.96 56,-302.04 56,-302.04 56,-299.08 58.96,-296.12 61.92,-296.12 61.92,-296.12 104.08,-296.12 104.08,-296.12 107.04,-296.12 110,-299.08 110,-302.04 110,-302.04 110,-307.96 110,-307.96 110,-310.92 107.04,-313.88 104.08,-313.88"/>
<text text-anchor="start" x="68" y="-301.32" font-family="Helvetica,sans-Serif" font-size="9.00">route.ts</text>
</a>
</g>
</g>
<!-- src/app/api/emulators/[id]/route.ts -->
<g id="node6" class="node">
<title>src/app/api/emulators/[id]/route.ts</title>
<g id="a_node6"><a xlink:href="https://github.com/your-username/your-repo/blob/main/src/app/api/emulators/[id]/route.ts" xlink:title="route.ts">
<path fill="#ccffcc" stroke="black" d="M104.08,-485.88C104.08,-485.88 61.92,-485.88 61.92,-485.88 58.96,-485.88 56,-482.92 56,-479.96 56,-479.96 56,-474.04 56,-474.04 56,-471.08 58.96,-468.12 61.92,-468.12 61.92,-468.12 104.08,-468.12 104.08,-468.12 107.04,-468.12 110,-471.08 110,-474.04 110,-474.04 110,-479.96 110,-479.96 110,-482.92 107.04,-485.88 104.08,-485.88"/>
<text text-anchor="start" x="68" y="-473.32" font-family="Helvetica,sans-Serif" font-size="9.00">route.ts</text>
</a>
</g>
</g>
<!-- src/app/api/emulators/[id]/start/route.ts -->
<g id="node7" class="node">
<title>src/app/api/emulators/[id]/start/route.ts</title>
<g id="a_node7"><a xlink:href="https://github.com/your-username/your-repo/blob/main/src/app/api/emulators/[id]/start/route.ts" xlink:title="route.ts">
<path fill="#ccffcc" stroke="black" d="M104.08,-373.88C104.08,-373.88 61.92,-373.88 61.92,-373.88 58.96,-373.88 56,-370.92 56,-367.96 56,-367.96 56,-362.04 56,-362.04 56,-359.08 58.96,-356.12 61.92,-356.12 61.92,-356.12 104.08,-356.12 104.08,-356.12 107.04,-356.12 110,-359.08 110,-362.04 110,-362.04 110,-367.96 110,-367.96 110,-370.92 107.04,-373.88 104.08,-373.88"/>
<text text-anchor="start" x="68" y="-361.32" font-family="Helvetica,sans-Serif" font-size="9.00">route.ts</text>
</a>
</g>
</g>
<!-- src/app/api/emulators/[id]/stop/route.ts -->
<g id="node8" class="node">
<title>src/app/api/emulators/[id]/stop/route.ts</title>
<g id="a_node8"><a xlink:href="https://github.com/your-username/your-repo/blob/main/src/app/api/emulators/[id]/stop/route.ts" xlink:title="route.ts">
<path fill="#ccffcc" stroke="black" d="M104.08,-433.88C104.08,-433.88 61.92,-433.88 61.92,-433.88 58.96,-433.88 56,-430.92 56,-427.96 56,-427.96 56,-422.04 56,-422.04 56,-419.08 58.96,-416.12 61.92,-416.12 61.92,-416.12 104.08,-416.12 104.08,-416.12 107.04,-416.12 110,-419.08 110,-422.04 110,-422.04 110,-427.96 110,-427.96 110,-430.92 107.04,-433.88 104.08,-433.88"/>
<text text-anchor="start" x="68" y="-421.32" font-family="Helvetica,sans-Serif" font-size="9.00">route.ts</text>
</a>
</g>
</g>
<!-- src/app/api/emulators/route.ts -->
<g id="node9" class="node">
<title>src/app/api/emulators/route.ts</title>
<g id="a_node9"><a xlink:href="https://github.com/your-username/your-repo/blob/main/src/app/api/emulators/route.ts" xlink:title="route.ts">
<path fill="#ccffcc" stroke="black" d="M104.08,-597.88C104.08,-597.88 61.92,-597.88 61.92,-597.88 58.96,-597.88 56,-594.92 56,-591.96 56,-591.96 56,-586.04 56,-586.04 56,-583.08 58.96,-580.12 61.92,-580.12 61.92,-580.12 104.08,-580.12 104.08,-580.12 107.04,-580.12 110,-583.08 110,-586.04 110,-586.04 110,-591.96 110,-591.96 110,-594.92 107.04,-597.88 104.08,-597.88"/>
<text text-anchor="start" x="68" y="-585.33" font-family="Helvetica,sans-Serif" font-size="9.00">route.ts</text>
</a>
</g>
</g>
<!-- src/app/api/emulators/system&#45;images/route.ts -->
<g id="node10" class="node">
<title>src/app/api/emulators/system&#45;images/route.ts</title>
<g id="a_node10"><a xlink:href="https://github.com/your-username/your-repo/blob/main/src/app/api/emulators/system-images/route.ts" xlink:title="route.ts">
<path fill="#ccffcc" stroke="black" d="M104.08,-545.88C104.08,-545.88 61.92,-545.88 61.92,-545.88 58.96,-545.88 56,-542.92 56,-539.96 56,-539.96 56,-534.04 56,-534.04 56,-531.08 58.96,-528.12 61.92,-528.12 61.92,-528.12 104.08,-528.12 104.08,-528.12 107.04,-528.12 110,-531.08 110,-534.04 110,-534.04 110,-539.96 110,-539.96 110,-542.92 107.04,-545.88 104.08,-545.88"/>
<text text-anchor="start" x="68" y="-533.33" font-family="Helvetica,sans-Serif" font-size="9.00">route.ts</text>
</a>
</g>
</g>
<!-- src/app/api/tasks/[id]/route.ts -->
<g id="node11" class="node">
<title>src/app/api/tasks/[id]/route.ts</title>
<g id="a_node11"><a xlink:href="https://github.com/your-username/your-repo/blob/main/src/app/api/tasks/[id]/route.ts" xlink:title="route.ts">
<path fill="#ccffcc" stroke="black" d="M104.08,-665.88C104.08,-665.88 61.92,-665.88 61.92,-665.88 58.96,-665.88 56,-662.92 56,-659.96 56,-659.96 56,-654.04 56,-654.04 56,-651.08 58.96,-648.12 61.92,-648.12 61.92,-648.12 104.08,-648.12 104.08,-648.12 107.04,-648.12 110,-651.08 110,-654.04 110,-654.04 110,-659.96 110,-659.96 110,-662.92 107.04,-665.88 104.08,-665.88"/>
<text text-anchor="start" x="68" y="-653.33" font-family="Helvetica,sans-Serif" font-size="9.00">route.ts</text>
</a>
</g>
</g>
<!-- src/app/globals.css -->
<g id="node12" class="node">
<title>src/app/globals.css</title>
<g id="a_node12"><a xlink:href="https://github.com/your-username/your-repo/blob/main/src/app/globals.css" xlink:title="globals.css">
<path fill="#ffffcc" stroke="black" d="M249.33,-769.88C249.33,-769.88 199.42,-769.88 199.42,-769.88 196.46,-769.88 193.5,-766.92 193.5,-763.96 193.5,-763.96 193.5,-758.04 193.5,-758.04 193.5,-755.08 196.46,-752.12 199.42,-752.12 199.42,-752.12 249.33,-752.12 249.33,-752.12 252.29,-752.12 255.25,-755.08 255.25,-758.04 255.25,-758.04 255.25,-763.96 255.25,-763.96 255.25,-766.92 252.29,-769.88 249.33,-769.88"/>
<text text-anchor="start" x="201.5" y="-757.33" font-family="Helvetica,sans-Serif" font-size="9.00">globals.css</text>
</a>
</g>
</g>
<!-- src/app/layout.tsx -->
<g id="node13" class="node">
<title>src/app/layout.tsx</title>
<g id="a_node13"><a xlink:href="https://github.com/your-username/your-repo/blob/main/src/app/layout.tsx" xlink:title="layout.tsx">
<path fill="#bbfeff" stroke="black" d="M104.21,-769.88C104.21,-769.88 61.79,-769.88 61.79,-769.88 58.83,-769.88 55.88,-766.92 55.88,-763.96 55.88,-763.96 55.88,-758.04 55.88,-758.04 55.88,-755.08 58.83,-752.12 61.79,-752.12 61.79,-752.12 104.21,-752.12 104.21,-752.12 107.17,-752.12 110.12,-755.08 110.12,-758.04 110.12,-758.04 110.12,-763.96 110.12,-763.96 110.12,-766.92 107.17,-769.88 104.21,-769.88"/>
<text text-anchor="start" x="63.88" y="-757.33" font-family="Helvetica,sans-Serif" font-size="9.00">layout.tsx</text>
</a>
</g>
</g>
<!-- src/app/layout.tsx&#45;&gt;src/app/globals.css -->
<g id="edge1" class="edge">
<title>src/app/layout.tsx&#45;&gt;src/app/globals.css</title>
<path fill="none" stroke="#000000" stroke-width="2" stroke-opacity="0.200000" d="M110.54,-761C131.32,-761 160.54,-761 184.03,-761"/>
<polygon fill="#000000" fill-opacity="0.200000" stroke="#000000" stroke-width="2" stroke-opacity="0.200000" points="184.03,-763.1 190.03,-761 184.03,-758.9 184.03,-763.1"/>
</g>
<!-- src/app/page.tsx -->
<g id="node14" class="node">
<title>src/app/page.tsx</title>
<g id="a_node14"><a xlink:href="https://github.com/your-username/your-repo/blob/main/src/app/page.tsx" xlink:title="page.tsx">
<path fill="#bbfeff" stroke="black" d="M104.08,-799.88C104.08,-799.88 61.92,-799.88 61.92,-799.88 58.96,-799.88 56,-796.92 56,-793.96 56,-793.96 56,-788.04 56,-788.04 56,-785.08 58.96,-782.12 61.92,-782.12 61.92,-782.12 104.08,-782.12 104.08,-782.12 107.04,-782.12 110,-785.08 110,-788.04 110,-788.04 110,-793.96 110,-793.96 110,-796.92 107.04,-799.88 104.08,-799.88"/>
<text text-anchor="start" x="65.75" y="-787.33" font-family="Helvetica,sans-Serif" font-size="9.00">page.tsx</text>
</a>
</g>
</g>
<!-- src/components/AccountsList.tsx -->
<g id="node15" class="node">
<title>src/components/AccountsList.tsx</title>
<g id="a_node15"><a xlink:href="https://github.com/your-username/your-repo/blob/main/src/components/AccountsList.tsx" xlink:title="AccountsList.tsx">
<path fill="#bbfeff" stroke="black" d="M259.08,-859.88C259.08,-859.88 189.67,-859.88 189.67,-859.88 186.71,-859.88 183.75,-856.92 183.75,-853.96 183.75,-853.96 183.75,-848.04 183.75,-848.04 183.75,-845.08 186.71,-842.12 189.67,-842.12 189.67,-842.12 259.08,-842.12 259.08,-842.12 262.04,-842.12 265,-845.08 265,-848.04 265,-848.04 265,-853.96 265,-853.96 265,-856.92 262.04,-859.88 259.08,-859.88"/>
<text text-anchor="start" x="191.75" y="-847.33" font-family="Helvetica,sans-Serif" font-size="9.00">AccountsList.tsx</text>
</a>
</g>
</g>
<!-- src/app/page.tsx&#45;&gt;src/components/AccountsList.tsx -->
<g id="edge2" class="edge">
<title>src/app/page.tsx&#45;&gt;src/components/AccountsList.tsx</title>
<path fill="none" stroke="#000000" stroke-width="2" stroke-opacity="0.200000" d="M102.76,-800.34C119.03,-808.31 143.29,-819.89 164.88,-829 172.58,-832.25 180.96,-835.54 188.89,-838.55"/>
<polygon fill="#000000" fill-opacity="0.200000" stroke="#000000" stroke-width="2" stroke-opacity="0.200000" points="188.09,-840.5 194.45,-840.63 189.56,-836.56 188.09,-840.5"/>
</g>
<!-- src/components/EmulatorManager.tsx -->
<g id="node16" class="node">
<title>src/components/EmulatorManager.tsx</title>
<g id="a_node16"><a xlink:href="https://github.com/your-username/your-repo/blob/main/src/components/EmulatorManager.tsx" xlink:title="EmulatorManager.tsx">
<path fill="#bbfeff" stroke="black" d="M269.96,-889.88C269.96,-889.88 178.79,-889.88 178.79,-889.88 175.83,-889.88 172.88,-886.92 172.88,-883.96 172.88,-883.96 172.88,-878.04 172.88,-878.04 172.88,-875.08 175.83,-872.12 178.79,-872.12 178.79,-872.12 269.96,-872.12 269.96,-872.12 272.92,-872.12 275.88,-875.08 275.88,-878.04 275.88,-878.04 275.88,-883.96 275.88,-883.96 275.88,-886.92 272.92,-889.88 269.96,-889.88"/>
<text text-anchor="start" x="180.88" y="-877.33" font-family="Helvetica,sans-Serif" font-size="9.00">EmulatorManager.tsx</text>
</a>
</g>
</g>
<!-- src/app/page.tsx&#45;&gt;src/components/EmulatorManager.tsx -->
<g id="edge3" class="edge">
<title>src/app/page.tsx&#45;&gt;src/components/EmulatorManager.tsx</title>
<path fill="none" stroke="#000000" stroke-width="2" stroke-opacity="0.200000" d="M91.19,-800.16C104.16,-816.05 133.1,-848.67 164.88,-866 166.39,-866.83 167.96,-867.61 169.56,-868.35"/>
<polygon fill="#000000" fill-opacity="0.200000" stroke="#000000" stroke-width="2" stroke-opacity="0.200000" points="168.65,-870.25 175,-870.58 170.24,-866.36 168.65,-870.25"/>
</g>
<!-- src/components/AccountDetails.tsx -->
<g id="node17" class="node">
<title>src/components/AccountDetails.tsx</title>
<g id="a_node17"><a xlink:href="https://github.com/your-username/your-repo/blob/main/src/components/AccountDetails.tsx" xlink:title="AccountDetails.tsx">
<path fill="#ccffcc" stroke="black" d="M263.96,-919.88C263.96,-919.88 184.79,-919.88 184.79,-919.88 181.83,-919.88 178.88,-916.92 178.88,-913.96 178.88,-913.96 178.88,-908.04 178.88,-908.04 178.88,-905.08 181.83,-902.12 184.79,-902.12 184.79,-902.12 263.96,-902.12 263.96,-902.12 266.92,-902.12 269.88,-905.08 269.88,-908.04 269.88,-908.04 269.88,-913.96 269.88,-913.96 269.88,-916.92 266.92,-919.88 263.96,-919.88"/>
<text text-anchor="start" x="186.88" y="-907.33" font-family="Helvetica,sans-Serif" font-size="9.00">AccountDetails.tsx</text>
</a>
</g>
</g>
<!-- src/components/EmulatorControls.tsx -->
<g id="node18" class="node">
<title>src/components/EmulatorControls.tsx</title>
<g id="a_node18"><a xlink:href="https://github.com/your-username/your-repo/blob/main/src/components/EmulatorControls.tsx" xlink:title="EmulatorControls.tsx">
<path fill="#ccffcc" stroke="black" d="M268.83,-949.88C268.83,-949.88 179.92,-949.88 179.92,-949.88 176.96,-949.88 174,-946.92 174,-943.96 174,-943.96 174,-938.04 174,-938.04 174,-935.08 176.96,-932.12 179.92,-932.12 179.92,-932.12 268.83,-932.12 268.83,-932.12 271.79,-932.12 274.75,-935.08 274.75,-938.04 274.75,-938.04 274.75,-943.96 274.75,-943.96 274.75,-946.92 271.79,-949.88 268.83,-949.88"/>
<text text-anchor="start" x="182" y="-937.33" font-family="Helvetica,sans-Serif" font-size="9.00">EmulatorControls.tsx</text>
</a>
</g>
</g>
<!-- src/services/DatabaseService.ts -->
<g id="node19" class="node">
<title>src/services/DatabaseService.ts</title>
<g id="a_node19"><a xlink:href="https://github.com/your-username/your-repo/blob/main/src/services/DatabaseService.ts" xlink:title="DatabaseService.ts">
<path fill="#ccffcc" stroke="black" d="M124.83,-1009.88C124.83,-1009.88 41.17,-1009.88 41.17,-1009.88 38.21,-1009.88 35.25,-1006.92 35.25,-1003.96 35.25,-1003.96 35.25,-998.04 35.25,-998.04 35.25,-995.08 38.21,-992.12 41.17,-992.12 41.17,-992.12 124.83,-992.12 124.83,-992.12 127.79,-992.12 130.75,-995.08 130.75,-998.04 130.75,-998.04 130.75,-1003.96 130.75,-1003.96 130.75,-1006.92 127.79,-1009.88 124.83,-1009.88"/>
<text text-anchor="start" x="43.25" y="-997.33" font-family="Helvetica,sans-Serif" font-size="9.00">DatabaseService.ts</text>
</a>
</g>
</g>
<!-- src/services/emulator.ts -->
<g id="node20" class="node">
<title>src/services/emulator.ts</title>
<g id="a_node20"><a xlink:href="https://github.com/your-username/your-repo/blob/main/src/services/emulator.ts" xlink:title="emulator.ts">
<path fill="#ddfeff" stroke="black" d="M248.96,-1009.88C248.96,-1009.88 199.79,-1009.88 199.79,-1009.88 196.83,-1009.88 193.88,-1006.92 193.88,-1003.96 193.88,-1003.96 193.88,-998.04 193.88,-998.04 193.88,-995.08 196.83,-992.12 199.79,-992.12 199.79,-992.12 248.96,-992.12 248.96,-992.12 251.92,-992.12 254.88,-995.08 254.88,-998.04 254.88,-998.04 254.88,-1003.96 254.88,-1003.96 254.88,-1006.92 251.92,-1009.88 248.96,-1009.88"/>
<text text-anchor="start" x="201.88" y="-997.33" font-family="Helvetica,sans-Serif" font-size="9.00">emulator.ts</text>
</a>
</g>
</g>
<!-- src/services/facebook.ts -->
<g id="node21" class="node">
<title>src/services/facebook.ts</title>
<g id="a_node21"><a xlink:href="https://github.com/your-username/your-repo/blob/main/src/services/facebook.ts" xlink:title="facebook.ts">
<path fill="#ddfeff" stroke="black" d="M249.71,-1039.88C249.71,-1039.88 199.04,-1039.88 199.04,-1039.88 196.08,-1039.88 193.12,-1036.92 193.12,-1033.96 193.12,-1033.96 193.12,-1028.04 193.12,-1028.04 193.12,-1025.08 196.08,-1022.12 199.04,-1022.12 199.04,-1022.12 249.71,-1022.12 249.71,-1022.12 252.67,-1022.12 255.62,-1025.08 255.62,-1028.04 255.62,-1028.04 255.62,-1033.96 255.62,-1033.96 255.62,-1036.92 252.67,-1039.88 249.71,-1039.88"/>
<text text-anchor="start" x="201.12" y="-1027.33" font-family="Helvetica,sans-Serif" font-size="9.00">facebook.ts</text>
</a>
</g>
</g>
<!-- src/services/farming.ts -->
<g id="node22" class="node">
<title>src/services/farming.ts</title>
<g id="a_node22"><a xlink:href="https://github.com/your-username/your-repo/blob/main/src/services/farming.ts" xlink:title="farming.ts">
<path fill="#ddfeff" stroke="black" d="M104.96,-1039.88C104.96,-1039.88 61.04,-1039.88 61.04,-1039.88 58.08,-1039.88 55.12,-1036.92 55.12,-1033.96 55.12,-1033.96 55.12,-1028.04 55.12,-1028.04 55.12,-1025.08 58.08,-1022.12 61.04,-1022.12 61.04,-1022.12 104.96,-1022.12 104.96,-1022.12 107.92,-1022.12 110.88,-1025.08 110.88,-1028.04 110.88,-1028.04 110.88,-1033.96 110.88,-1033.96 110.88,-1036.92 107.92,-1039.88 104.96,-1039.88"/>
<text text-anchor="start" x="63.12" y="-1027.33" font-family="Helvetica,sans-Serif" font-size="9.00">farming.ts</text>
</a>
</g>
</g>
<!-- src/services/farming.ts&#45;&gt;src/services/emulator.ts -->
<g id="edge4" class="edge">
<title>src/services/farming.ts&#45;&gt;src/services/emulator.ts</title>
<path fill="none" stroke="#000000" stroke-width="2" stroke-opacity="0.200000" d="M111.2,-1025.14C132.28,-1020.61 161.73,-1014.27 185.17,-1009.22"/>
<polygon fill="#000000" fill-opacity="0.200000" stroke="#000000" stroke-width="2" stroke-opacity="0.200000" points="185.45,-1011.31 190.87,-1008 184.56,-1007.21 185.45,-1011.31"/>
</g>
<!-- src/services/farming.ts&#45;&gt;src/services/facebook.ts -->
<g id="edge5" class="edge">
<title>src/services/farming.ts&#45;&gt;src/services/facebook.ts</title>
<path fill="none" stroke="#000000" stroke-width="2" stroke-opacity="0.200000" d="M111.2,-1031C131.9,-1031 160.69,-1031 183.92,-1031"/>
<polygon fill="#000000" fill-opacity="0.200000" stroke="#000000" stroke-width="2" stroke-opacity="0.200000" points="183.82,-1033.1 189.82,-1031 183.82,-1028.9 183.82,-1033.1"/>
</g>
<!-- src/services/sms&#45;activate.ts -->
<g id="node23" class="node">
<title>src/services/sms&#45;activate.ts</title>
<g id="a_node23"><a xlink:href="https://github.com/your-username/your-repo/blob/main/src/services/sms-activate.ts" xlink:title="sms&#45;activate.ts">
<path fill="#ddfeff" stroke="black" d="M256.46,-1069.88C256.46,-1069.88 192.29,-1069.88 192.29,-1069.88 189.33,-1069.88 186.38,-1066.92 186.38,-1063.96 186.38,-1063.96 186.38,-1058.04 186.38,-1058.04 186.38,-1055.08 189.33,-1052.12 192.29,-1052.12 192.29,-1052.12 256.46,-1052.12 256.46,-1052.12 259.42,-1052.12 262.38,-1055.08 262.38,-1058.04 262.38,-1058.04 262.38,-1063.96 262.38,-1063.96 262.38,-1066.92 259.42,-1069.88 256.46,-1069.88"/>
<text text-anchor="start" x="194.38" y="-1057.33" font-family="Helvetica,sans-Serif" font-size="9.00">sms&#45;activate.ts</text>
</a>
</g>
</g>
<!-- src/services/farming.ts&#45;&gt;src/services/sms&#45;activate.ts -->
<g id="edge6" class="edge">
<title>src/services/farming.ts&#45;&gt;src/services/sms&#45;activate.ts</title>
<path fill="none" stroke="#000000" stroke-width="2" stroke-opacity="0.200000" d="M111.2,-1036.86C129.93,-1040.89 155.28,-1046.34 177.15,-1051.05"/>
<polygon fill="#000000" fill-opacity="0.200000" stroke="#000000" stroke-width="2" stroke-opacity="0.200000" points="176.69,-1053.1 183,-1052.31 177.58,-1048.99 176.69,-1053.1"/>
</g>
<!-- src/types/index.ts -->
<g id="node24" class="node">
<title>src/types/index.ts</title>
<g id="a_node24"><a xlink:href="https://github.com/your-username/your-repo/blob/main/src/types/index.ts" xlink:title="index.ts">
<path fill="#ccffcc" stroke="black" d="M104.08,-1129.88C104.08,-1129.88 61.92,-1129.88 61.92,-1129.88 58.96,-1129.88 56,-1126.92 56,-1123.96 56,-1123.96 56,-1118.04 56,-1118.04 56,-1115.08 58.96,-1112.12 61.92,-1112.12 61.92,-1112.12 104.08,-1112.12 104.08,-1112.12 107.04,-1112.12 110,-1115.08 110,-1118.04 110,-1118.04 110,-1123.96 110,-1123.96 110,-1126.92 107.04,-1129.88 104.08,-1129.88"/>
<text text-anchor="start" x="67.25" y="-1117.33" font-family="Helvetica,sans-Serif" font-size="9.00">index.ts</text>
</a>
</g>
</g>
</g>
</svg>
